<svg xmlns="http://www.w3.org/2000/svg" width="783" height="515" id="concept-of-data-analysis-and-maintenance"><defs><linearGradient id="a" x1="51.233%" x2="48.994%" y1="50.968%" y2="48.804%"><stop offset="0%" stop-color="#70B"></stop><stop offset="100%" stop-color="#00008B"></stop></linearGradient><linearGradient id="b" x1="0%" x2="100%" y1="49.999%" y2="49.999%"><stop offset="0%" stop-color="#70B"></stop><stop offset="100%" stop-color="#00008B"></stop><stop offset="100%"></stop></linearGradient><linearGradient id="c" x1="51.859%" x2="48.827%" y1="94.764%" y2="22.318%"><stop offset="0%" stop-color="#88CFDA"></stop><stop offset="5.06%" stop-color="#93D1D5"></stop><stop offset="25.02%" stop-color="#BAD7C2"></stop><stop offset="44.81%" stop-color="#D8DBB3"></stop><stop offset="64.14%" stop-color="#EEDEA8"></stop><stop offset="82.79%" stop-color="#FBE0A2"></stop><stop offset="100%" stop-color="#FFE1A0"></stop></linearGradient><linearGradient id="d" x1="49.942%" x2="49.942%" y1="3.715%" y2="104.363%"><stop offset="0%" stop-color="#7633FF"></stop><stop offset="15.85%" stop-color="#7137FF"></stop><stop offset="35.35%" stop-color="#6243FF"></stop><stop offset="56.76%" stop-color="#4957FF"></stop><stop offset="79.37%" stop-color="#2672FF"></stop><stop offset="100%" stop-color="#0090FF"></stop></linearGradient><linearGradient id="e" x1="50.027%" x2="50.027%" y1="-45.808%" y2="106.587%"><stop offset="0%" stop-color="#7633FF"></stop><stop offset="15.85%" stop-color="#7137FF"></stop><stop offset="35.35%" stop-color="#6243FF"></stop><stop offset="56.76%" stop-color="#4957FF"></stop><stop offset="79.37%" stop-color="#2672FF"></stop><stop offset="100%" stop-color="#0090FF"></stop></linearGradient><linearGradient id="f" x1="49.995%" x2="49.995%" y1="-9.898%" y2="104.376%"><stop offset="0%" stop-color="#7633FF"></stop><stop offset="15.85%" stop-color="#7137FF"></stop><stop offset="35.35%" stop-color="#6243FF"></stop><stop offset="56.76%" stop-color="#4957FF"></stop><stop offset="79.37%" stop-color="#2672FF"></stop><stop offset="100%" stop-color="#0090FF"></stop></linearGradient><linearGradient id="g" x1="49.959%" x2="49.959%" y1="-.158%" y2="104.525%"><stop offset="0%" stop-color="#7633FF"></stop><stop offset="15.85%" stop-color="#7137FF"></stop><stop offset="35.35%" stop-color="#6243FF"></stop><stop offset="56.76%" stop-color="#4957FF"></stop><stop offset="79.37%" stop-color="#2672FF"></stop><stop offset="100%" stop-color="#0090FF"></stop></linearGradient><linearGradient id="h" x1="50.038%" x2="50.038%" y1="-50.457%" y2="106.797%"><stop offset="0%" stop-color="#7633FF"></stop><stop offset="15.85%" stop-color="#7137FF"></stop><stop offset="35.35%" stop-color="#6243FF"></stop><stop offset="56.76%" stop-color="#4957FF"></stop><stop offset="79.37%" stop-color="#2672FF"></stop><stop offset="100%" stop-color="#0090FF"></stop></linearGradient><linearGradient id="i" x1="50.012%" x2="50.012%" y1="-87.169%" y2="108.456%"><stop offset="0%" stop-color="#7633FF"></stop><stop offset="15.85%" stop-color="#7137FF"></stop><stop offset="35.35%" stop-color="#6243FF"></stop><stop offset="56.76%" stop-color="#4957FF"></stop><stop offset="79.37%" stop-color="#2672FF"></stop><stop offset="100%" stop-color="#0090FF"></stop></linearGradient><linearGradient id="j" x1="49.973%" x2="49.973%" y1="-7.305%" y2="104.848%"><stop offset="0%" stop-color="#7633FF"></stop><stop offset="15.85%" stop-color="#7137FF"></stop><stop offset="35.35%" stop-color="#6243FF"></stop><stop offset="56.76%" stop-color="#4957FF"></stop><stop offset="79.37%" stop-color="#2672FF"></stop><stop offset="100%" stop-color="#0090FF"></stop></linearGradient><linearGradient id="k" x1="50.057%" x2="50.057%" y1="-30.905%" y2="105.914%"><stop offset="0%" stop-color="#7633FF"></stop><stop offset="15.85%" stop-color="#7137FF"></stop><stop offset="35.35%" stop-color="#6243FF"></stop><stop offset="56.76%" stop-color="#4957FF"></stop><stop offset="79.37%" stop-color="#2672FF"></stop><stop offset="100%" stop-color="#0090FF"></stop></linearGradient><linearGradient id="l" x1="50.023%" x2="50.023%" y1="-11.337%" y2="105.03%"><stop offset="0%" stop-color="#7633FF"></stop><stop offset="15.85%" stop-color="#7137FF"></stop><stop offset="35.35%" stop-color="#6243FF"></stop><stop offset="56.76%" stop-color="#4957FF"></stop><stop offset="79.37%" stop-color="#2672FF"></stop><stop offset="100%" stop-color="#0090FF"></stop></linearGradient><linearGradient id="m" x1="49.993%" x2="49.993%" y1="-63.415%" y2="107.383%"><stop offset="0%" stop-color="#7633FF"></stop><stop offset="15.85%" stop-color="#7137FF"></stop><stop offset="35.35%" stop-color="#6243FF"></stop><stop offset="56.76%" stop-color="#4957FF"></stop><stop offset="79.37%" stop-color="#2672FF"></stop><stop offset="100%" stop-color="#0090FF"></stop></linearGradient><linearGradient id="n" x1="49.956%" x2="49.956%" y1="-37.295%" y2="106.202%"><stop offset="0%" stop-color="#7633FF"></stop><stop offset="15.85%" stop-color="#7137FF"></stop><stop offset="35.35%" stop-color="#6243FF"></stop><stop offset="56.76%" stop-color="#4957FF"></stop><stop offset="79.37%" stop-color="#2672FF"></stop><stop offset="100%" stop-color="#0090FF"></stop></linearGradient><linearGradient id="o" x1="49.999%" x2="49.999%" y1="98.561%" y2="1.547%"><stop offset="0%" stop-color="#A1BAFF"></stop><stop offset="43.32%" stop-color="#FFF"></stop></linearGradient><linearGradient id="p" x1="50%" x2="50%" y1="100.252%" y2="-4.339%"><stop offset="0%" stop-color="#88CFDA"></stop><stop offset="5.06%" stop-color="#93D1D5"></stop><stop offset="25.02%" stop-color="#BAD7C2"></stop><stop offset="44.81%" stop-color="#D8DBB3"></stop><stop offset="64.14%" stop-color="#EEDEA8"></stop><stop offset="82.79%" stop-color="#FBE0A2"></stop><stop offset="100%" stop-color="#FFE1A0"></stop></linearGradient><linearGradient id="q" x1="50.001%" x2="50.001%" y1="183.321%" y2="-55.799%"><stop offset="0%" stop-color="#88CFDA"></stop><stop offset="18.38%" stop-color="#98D1D2"></stop><stop offset="54.28%" stop-color="#C2D8BE"></stop><stop offset="100%" stop-color="#FFE1A0"></stop></linearGradient><linearGradient id="r" x1="50.02%" x2="50.02%" y1="110.138%" y2="-.829%"><stop offset="0%" stop-color="#7633FF"></stop><stop offset="15.85%" stop-color="#7137FF"></stop><stop offset="35.35%" stop-color="#6243FF"></stop><stop offset="56.76%" stop-color="#4957FF"></stop><stop offset="79.37%" stop-color="#2672FF"></stop><stop offset="100%" stop-color="#0090FF"></stop></linearGradient><linearGradient id="s" x1=".024%" x2="99.948%" y1="50.002%" y2="50.002%"><stop offset="0%" stop-color="#7633FF"></stop><stop offset="15.85%" stop-color="#7137FF"></stop><stop offset="35.35%" stop-color="#6243FF"></stop><stop offset="56.76%" stop-color="#4957FF"></stop><stop offset="79.37%" stop-color="#2672FF"></stop><stop offset="100%" stop-color="#0090FF"></stop></linearGradient><linearGradient id="t" x1=".024%" x2="99.948%" y1="49.953%" y2="49.953%"><stop offset="0%" stop-color="#7633FF"></stop><stop offset="15.85%" stop-color="#7137FF"></stop><stop offset="35.35%" stop-color="#6243FF"></stop><stop offset="56.76%" stop-color="#4957FF"></stop><stop offset="79.37%" stop-color="#2672FF"></stop><stop offset="100%" stop-color="#0090FF"></stop></linearGradient><linearGradient id="u" x1=".024%" x2="99.948%" y1="49.999%" y2="49.999%"><stop offset="0%" stop-color="#7633FF"></stop><stop offset="15.85%" stop-color="#7137FF"></stop><stop offset="35.35%" stop-color="#6243FF"></stop><stop offset="56.76%" stop-color="#4957FF"></stop><stop offset="79.37%" stop-color="#2672FF"></stop><stop offset="100%" stop-color="#0090FF"></stop></linearGradient><linearGradient id="v" x1=".006%" x2="100.004%" y1="50.014%" y2="50.014%"><stop offset="0%" stop-color="#270036"></stop><stop offset="59.36%" stop-color="#4F008B"></stop><stop offset="100%" stop-color="#4C24B1"></stop></linearGradient><linearGradient id="w" x1="49.985%" x2="49.985%" y1="99.65%" y2="-.974%"><stop offset="0%" stop-color="#7633FF"></stop><stop offset="15.85%" stop-color="#7137FF"></stop><stop offset="35.35%" stop-color="#6243FF"></stop><stop offset="56.76%" stop-color="#4957FF"></stop><stop offset="79.37%" stop-color="#2672FF"></stop><stop offset="100%" stop-color="#0090FF"></stop></linearGradient><linearGradient id="x" x1="49.98%" x2="49.98%" y1="104.884%" y2="2.131%"><stop offset="0%" stop-color="#7633FF"></stop><stop offset="15.85%" stop-color="#7137FF"></stop><stop offset="35.35%" stop-color="#6243FF"></stop><stop offset="56.76%" stop-color="#4957FF"></stop><stop offset="79.37%" stop-color="#2672FF"></stop><stop offset="100%" stop-color="#0090FF"></stop></linearGradient><linearGradient id="y" x1="50.012%" x2="50.012%" y1="101.625%" y2=".788%"><stop offset="0%" stop-color="#311341"></stop><stop offset="22.99%" stop-color="#3113C2"></stop><stop offset="34.79%" stop-color="#2F18C5"></stop><stop offset="49.31%" stop-color="#2927CC"></stop><stop offset="65.24%" stop-color="#1F40D8"></stop><stop offset="82.19%" stop-color="#1263E9"></stop><stop offset="99.78%" stop-color="#008FFF"></stop><stop offset="100%" stop-color="#0090FF"></stop></linearGradient><linearGradient id="z" x1="50.024%" x2="50.024%" y1="106.85%" y2="-11.601%"><stop offset="0%" stop-color="#7633FF"></stop><stop offset="15.85%" stop-color="#7137FF"></stop><stop offset="35.35%" stop-color="#6243FF"></stop><stop offset="56.76%" stop-color="#4957FF"></stop><stop offset="79.37%" stop-color="#2672FF"></stop><stop offset="100%" stop-color="#0090FF"></stop></linearGradient><linearGradient id="A" x1="50.053%" x2="50.053%" y1="105.46%" y2="-3.846%"><stop offset="0%" stop-color="#311341"></stop><stop offset="22.99%" stop-color="#3113C2"></stop><stop offset="34.79%" stop-color="#2F18C5"></stop><stop offset="49.31%" stop-color="#2927CC"></stop><stop offset="65.24%" stop-color="#1F40D8"></stop><stop offset="82.19%" stop-color="#1263E9"></stop><stop offset="99.78%" stop-color="#008FFF"></stop><stop offset="100%" stop-color="#0090FF"></stop></linearGradient><linearGradient id="B" x1="-.003%" x2="99.988%" y1="49.999%" y2="49.999%"><stop offset="0%" stop-color="#7633FF"></stop><stop offset="15.85%" stop-color="#7137FF"></stop><stop offset="35.35%" stop-color="#6243FF"></stop><stop offset="56.76%" stop-color="#4957FF"></stop><stop offset="79.37%" stop-color="#2672FF"></stop><stop offset="100%" stop-color="#0090FF"></stop></linearGradient><linearGradient id="C" x1="74.064%" x2="-13.771%" y1="30.541%" y2="110.699%"><stop offset="0%" stop-color="#A1BAFF"></stop><stop offset="43.32%" stop-color="#FFF"></stop></linearGradient><linearGradient id="D" x1="50.288%" x2="49.799%" y1="94.797%" y2="22.221%"><stop offset="0%" stop-color="#A1BAFF"></stop><stop offset="43.32%" stop-color="#FFF"></stop><stop offset="57.94%" stop-color="#FBFCFF"></stop><stop offset="71.23%" stop-color="#F0F4FF"></stop><stop offset="84%" stop-color="#DEE7FF"></stop><stop offset="96.37%" stop-color="#C4D4FF"></stop><stop offset="100%" stop-color="#BBCDFF"></stop></linearGradient><linearGradient id="E" x1="50.433%" x2="49.626%" y1="92.974%" y2="22.353%"><stop offset="0%" stop-color="#A1BAFF"></stop><stop offset="43.32%" stop-color="#FFF"></stop><stop offset="57.94%" stop-color="#FBFCFF"></stop><stop offset="71.23%" stop-color="#F0F4FF"></stop><stop offset="84%" stop-color="#DEE7FF"></stop><stop offset="96.37%" stop-color="#C4D4FF"></stop><stop offset="100%" stop-color="#BBCDFF"></stop></linearGradient><linearGradient id="F" x1="44.688%" x2="57.892%" y1="9.526%" y2="106.511%"><stop offset="0%" stop-color="#311341"></stop><stop offset="63.46%" stop-color="#3113C2"></stop><stop offset="69.06%" stop-color="#2F18C5"></stop><stop offset="75.95%" stop-color="#2927CC"></stop><stop offset="83.51%" stop-color="#1F40D8"></stop><stop offset="91.55%" stop-color="#1263E9"></stop><stop offset="99.9%" stop-color="#008FFF"></stop><stop offset="100%" stop-color="#0090FF"></stop></linearGradient><linearGradient id="G" x1="-.011%" x2="100.002%" y1="49.976%" y2="49.976%"><stop offset="0%" stop-color="#A1BAFF"></stop><stop offset="43.32%" stop-color="#FFF"></stop></linearGradient><linearGradient id="H" x1="-.003%" x2="99.998%" y1="49.953%" y2="49.953%"><stop offset="0%" stop-color="#88CFDA"></stop><stop offset="5.06%" stop-color="#93D1D5"></stop><stop offset="25.02%" stop-color="#BAD7C2"></stop><stop offset="44.81%" stop-color="#D8DBB3"></stop><stop offset="64.14%" stop-color="#EEDEA8"></stop><stop offset="82.79%" stop-color="#FBE0A2"></stop><stop offset="100%" stop-color="#FFE1A0"></stop></linearGradient><linearGradient id="I" x1=".007%" x2="100.014%" y1="49.981%" y2="49.981%"><stop offset="0%" stop-color="#88CFDA"></stop><stop offset="5.06%" stop-color="#93D1D5"></stop><stop offset="25.02%" stop-color="#BAD7C2"></stop><stop offset="44.81%" stop-color="#D8DBB3"></stop><stop offset="64.14%" stop-color="#EEDEA8"></stop><stop offset="82.79%" stop-color="#FBE0A2"></stop><stop offset="100%" stop-color="#FFE1A0"></stop></linearGradient><linearGradient id="J" x1="40.326%" x2="67.095%" y1="4.879%" y2="129.838%"><stop offset="0%" stop-color="#311341"></stop><stop offset="63.46%" stop-color="#3113C2"></stop><stop offset="69.06%" stop-color="#2F18C5"></stop><stop offset="75.95%" stop-color="#2927CC"></stop><stop offset="83.51%" stop-color="#1F40D8"></stop><stop offset="91.55%" stop-color="#1263E9"></stop><stop offset="99.9%" stop-color="#008FFF"></stop><stop offset="100%" stop-color="#0090FF"></stop></linearGradient><linearGradient id="K" x1="99.986%" x2=".016%" y1="50.002%" y2="50.002%"><stop offset="0%" stop-color="#7633FF"></stop><stop offset="15.85%" stop-color="#7137FF"></stop><stop offset="35.35%" stop-color="#6243FF"></stop><stop offset="56.76%" stop-color="#4957FF"></stop><stop offset="79.37%" stop-color="#2672FF"></stop><stop offset="100%" stop-color="#0090FF"></stop></linearGradient><linearGradient id="L" x1="56.657%" x2="47.291%" y1="10.963%" y2="107.325%"><stop offset="0%" stop-color="#3822D1"></stop><stop offset="16.52%" stop-color="#3527D3"></stop><stop offset="36.84%" stop-color="#2E36DA"></stop><stop offset="59.16%" stop-color="#214FE4"></stop><stop offset="82.72%" stop-color="#0F72F2"></stop><stop offset="100%" stop-color="#0090FF"></stop></linearGradient><linearGradient id="M" x1="99.989%" x2="-.022%" y1="50.064%" y2="50.064%"><stop offset="0%" stop-color="#88CFDA"></stop><stop offset="5.06%" stop-color="#93D1D5"></stop><stop offset="25.02%" stop-color="#BAD7C2"></stop><stop offset="44.81%" stop-color="#D8DBB3"></stop><stop offset="64.14%" stop-color="#EEDEA8"></stop><stop offset="82.79%" stop-color="#FBE0A2"></stop><stop offset="100%" stop-color="#FFE1A0"></stop></linearGradient><linearGradient id="N" x1="-.006%" x2="99.998%" y1="49.983%" y2="49.983%"><stop offset="0%" stop-color="#7633FF"></stop><stop offset="15.85%" stop-color="#7137FF"></stop><stop offset="35.35%" stop-color="#6243FF"></stop><stop offset="56.76%" stop-color="#4957FF"></stop><stop offset="79.37%" stop-color="#2672FF"></stop><stop offset="100%" stop-color="#0090FF"></stop></linearGradient><linearGradient id="O" x1="45.178%" x2="51.762%" y1="1.985%" y2="94.537%"><stop offset="0%" stop-color="#7633FF"></stop><stop offset="15.85%" stop-color="#7137FF"></stop><stop offset="35.35%" stop-color="#6243FF"></stop><stop offset="56.76%" stop-color="#4957FF"></stop><stop offset="79.37%" stop-color="#2672FF"></stop><stop offset="100%" stop-color="#0090FF"></stop></linearGradient><linearGradient id="P" x1="-30.566%" x2="113.849%" y1="61.689%" y2="44.753%"><stop offset="0%" stop-color="#5E60FF"></stop><stop offset="18.14%" stop-color="#5963FF"></stop><stop offset="40.44%" stop-color="#4A6AFF"></stop><stop offset="64.91%" stop-color="#3177FF"></stop><stop offset="90.79%" stop-color="#0E89FF"></stop><stop offset="100%" stop-color="#0090FF"></stop></linearGradient><linearGradient id="Q" x1="35.772%" x2="73.489%" y1="42.88%" y2="90.486%"><stop offset="0%" stop-color="#591DDB"></stop><stop offset="16.09%" stop-color="#52D"></stop><stop offset="35.89%" stop-color="#4931E1"></stop><stop offset="57.62%" stop-color="#364AE9"></stop><stop offset="80.58%" stop-color="#1B6DF4"></stop><stop offset="100%" stop-color="#0090FF"></stop></linearGradient><linearGradient id="R" x1="50.024%" x2="50.024%" y1="1.389%" y2="104.286%"><stop offset="0%" stop-color="#311341"></stop><stop offset="22.99%" stop-color="#3113C2"></stop><stop offset="34.79%" stop-color="#2F18C5"></stop><stop offset="49.31%" stop-color="#2927CC"></stop><stop offset="65.24%" stop-color="#1F40D8"></stop><stop offset="82.19%" stop-color="#1263E9"></stop><stop offset="99.78%" stop-color="#008FFF"></stop><stop offset="100%" stop-color="#0090FF"></stop></linearGradient><linearGradient id="S" x1="49.987%" x2="49.987%" y1="-19.469%" y2="140.878%"><stop offset="0%" stop-color="#270036"></stop><stop offset="59.36%" stop-color="#4F008B"></stop><stop offset="100%" stop-color="#4C24B1"></stop></linearGradient><linearGradient id="T" x1="49.98%" x2="49.98%" y1="-19.469%" y2="140.878%"><stop offset="0%" stop-color="#270036"></stop><stop offset="59.36%" stop-color="#4F008B"></stop><stop offset="100%" stop-color="#4C24B1"></stop></linearGradient><linearGradient id="U" x1=".009%" x2="178.978%" y1="50.012%" y2="50.012%"><stop offset="0%" stop-color="#311341"></stop><stop offset="22.99%" stop-color="#3113C2"></stop><stop offset="34.79%" stop-color="#2F18C5"></stop><stop offset="49.31%" stop-color="#2927CC"></stop><stop offset="65.24%" stop-color="#1F40D8"></stop><stop offset="82.19%" stop-color="#1263E9"></stop><stop offset="99.78%" stop-color="#008FFF"></stop><stop offset="100%" stop-color="#0090FF"></stop></linearGradient><linearGradient id="V" x1="-.064%" x2="99.973%" y1="49.975%" y2="49.975%"><stop offset="0%" stop-color="#7633FF"></stop><stop offset="11.06%" stop-color="#6640FF"></stop><stop offset="52.43%" stop-color="#2F6BFF"></stop><stop offset="83.31%" stop-color="#0D86FF"></stop><stop offset="100%" stop-color="#0090FF"></stop></linearGradient><linearGradient id="W" x1=".011%" x2="99.989%" y1="49.884%" y2="49.884%"><stop offset="0%" stop-color="#27004F"></stop><stop offset="100%" stop-color="#004C81"></stop></linearGradient><linearGradient id="X" x1="-.005%" x2="99.972%" y1="50.031%" y2="50.031%"><stop offset="0%" stop-color="#27004F"></stop><stop offset="100%" stop-color="#004C81"></stop></linearGradient><linearGradient id="Y" x1=".011%" x2="100.001%" y1="50.008%" y2="50.008%"><stop offset="0%" stop-color="#27004F"></stop><stop offset="100%" stop-color="#004C81"></stop></linearGradient><linearGradient id="Z" x1="-.004%" x2="99.97%" y1="50.014%" y2="50.014%"><stop offset="0%" stop-color="#A1BAFF"></stop><stop offset="43.32%" stop-color="#FFF"></stop></linearGradient><linearGradient id="aa" x1="110.378%" x2="-20.079%" y1="47.273%" y2="50.922%"><stop offset="0%" stop-color="#A1BAFF"></stop><stop offset="43.32%" stop-color="#FFF"></stop></linearGradient><linearGradient id="ab" x1=".003%" x2="99.998%" y1="50%" y2="50%"><stop offset="0%" stop-color="#270036"></stop><stop offset="59.36%" stop-color="#4F008B"></stop><stop offset="100%" stop-color="#4C24B1"></stop></linearGradient><linearGradient id="ac" x1="-13.672%" x2="58.597%" y1="98.505%" y2="14.794%"><stop offset="0%" stop-color="#7633FF"></stop><stop offset="15.85%" stop-color="#7137FF"></stop><stop offset="35.35%" stop-color="#6243FF"></stop><stop offset="56.76%" stop-color="#4957FF"></stop><stop offset="79.37%" stop-color="#2672FF"></stop><stop offset="100%" stop-color="#0090FF"></stop></linearGradient><linearGradient id="ad" x1=".01%" x2="100.005%" y1="50.014%" y2="50.014%"><stop offset="0%" stop-color="#A1BAFF"></stop><stop offset="8.88%" stop-color="#ACC2FF"></stop><stop offset="49.88%" stop-color="#D9E3FF"></stop><stop offset="81.6%" stop-color="#F5F7FF"></stop><stop offset="100%" stop-color="#FFF"></stop></linearGradient></defs><g fill="none" fill-rule="evenodd"><path fill="url(#a)" d="M38.79 1.42S-9.02 13.15 2.73 59c6.14 23.96 51.11 29.5 114.15 29.5 1.48 0 2.94-.01 4.41-.02 1.35.45 2.71.89 4.09 1.3 74.09 21.93 175.24.04 266.72-27.49 71.62-21.55 233.78-17.68 284.39-17.68 175.04 0 80.92-43.19 80.92-43.19H38.79Z" transform="translate(0 416)"></path><path fill="#000640" fill-rule="nonzero" d="M734.23 448.4H300.01v-31.91h402.31z" opacity=".5"></path><path fill="#000640" d="M378.76 483.91c0 9.61-70.65 17.41-157.8 17.41s-157.8-7.79-157.8-17.41c0-9.61 70.65-17.41 157.8-17.41 87.16.01 157.8 7.8 157.8 17.41Z" opacity=".5"></path><path fill="url(#b)" fill-rule="nonzero" d="M28.74 419.86h742.21s25.7-174.93-88.36-282.93-279.53-24.34-279.53-24.34-92.17-159.01-228.13-98.87C-45.16 111.07 28.74 419.86 28.74 419.86Z"></path><path fill="url(#c)" fill-rule="nonzero" d="M155.51 52.09c-.09 0-.18-.01-.27-.01-13.9 0-25.17 11.27-25.17 25.17 0 13.9 11.27 25.17 25.17 25.17 13.9 0 25.17-11.27 25.17-25.17h-24.9V52.09Z" opacity=".8"></path><g fill-rule="nonzero"><path fill="url(#d)" d="M10.16 19.5h8.25v74.48h-8.25z" transform="translate(80 170)"></path><path fill="url(#e)" d="M26.08 44.8h8.25v49.19h-8.25z" transform="translate(80 170)"></path><path fill="url(#f)" d="M42.01 28.76h8.25v65.6h-8.25z" transform="translate(80 170)"></path><path fill="url(#g)" d="M57.94 22.38h8.25v71.61h-8.25z" transform="translate(80 170)"></path><path fill="url(#h)" d="M73.86 46.32h8.25v47.67h-8.25z" transform="translate(80 170)"></path><path fill="url(#i)" d="M89.79 55.67h8.25v38.32h-8.25z" transform="translate(80 170)"></path><path fill="url(#j)" d="M105.72 27.15h8.25v66.84h-8.25z" transform="translate(80 170)"></path><path fill="url(#k)" d="M121.64 39.2h8.25v54.79h-8.25z" transform="translate(80 170)"></path><path fill="url(#l)" d="M137.57 29.57h8.25v64.42h-8.25z" transform="translate(80 170)"></path><path fill="url(#m)" d="M153.5 50.1h8.25v43.89h-8.25z" transform="translate(80 170)"></path><path fill="url(#n)" d="M169.43 41.75h8.25v52.24h-8.25z" transform="translate(80 170)"></path><path fill="#FFF" d="M252.57 206.39c0 .01-.17-.01-.5-.06-.36-.06-.84-.13-1.44-.23-.63-.12-1.42-.22-2.35-.31-.47-.05-.97-.1-1.51-.16-.54-.02-1.11-.05-1.72-.08-2.43-.11-5.42-.04-8.84.48-3.41.5-7.26 1.44-11.29 3.07-4.02 1.63-8.24 3.93-12.17 7.19-3.99 3.2-7.47 7.45-10.9 12.08-3.46 4.59-6.99 9.63-11.9 13.69-2.43 2.03-5.19 3.79-8.26 4.99-3.07 1.18-6.49 1.69-9.85 1.21-3.38-.41-6.51-1.8-9.29-3.52-2.76-1.78-5.21-3.91-7.37-6.22-4.36-4.61-7.52-9.85-10.86-14.53-3.3-4.7-6.78-8.99-10.85-12.08-2.01-1.57-4.2-2.7-6.37-3.62-2.19-.88-4.41-1.42-6.54-1.76-4.29-.64-8.27-.27-11.62.5-3.36.78-6.1 2.01-8.22 3.18-2.08 1.26-3.59 2.41-4.54 3.26-.45.41-.81.74-1.08.98-.25.22-.38.33-.39.32-.01-.01.11-.13.34-.37.26-.26.6-.6 1.04-1.03.93-.89 2.42-2.08 4.5-3.39 2.12-1.22 4.87-2.5 8.27-3.33 3.38-.81 7.41-1.23 11.78-.61 2.17.33 4.43.86 6.67 1.75 2.21.92 4.47 2.08 6.52 3.66 4.16 3.12 7.69 7.45 11.02 12.16 3.36 4.7 6.53 9.9 10.83 14.43 2.13 2.28 4.55 4.36 7.24 6.1 2.72 1.68 5.75 3.03 9.01 3.42 3.24.46 6.53-.03 9.51-1.17 2.98-1.16 5.68-2.88 8.07-4.87 4.82-3.98 8.34-8.97 11.82-13.56 1.74-2.3 3.46-4.54 5.28-6.6.92-1.02 1.82-2.03 2.81-2.93l1.45-1.36c.49-.43 1-.83 1.5-1.25 4-3.28 8.28-5.59 12.35-7.2 4.08-1.62 7.97-2.53 11.42-3 3.45-.48 6.46-.52 8.9-.37.61.04 1.19.07 1.73.11.54.07 1.04.13 1.51.19.94.11 1.72.23 2.35.37.6.13 1.08.22 1.43.3.35.12.51.16.51.17ZM81.07 269.18c-.19 0-.35-21.24-.35-47.43 0-26.2.15-47.44.35-47.44.19 0 .35 21.23.35 47.44 0 26.19-.15 47.43-.35 47.43ZM261.04 269.18c0 .19-39.13.35-87.39.35-48.28 0-87.4-.15-87.4-.35 0-.19 39.12-.35 87.4-.35 48.26 0 87.39.16 87.39.35ZM101.92 275.04c0 .19-2.74.35-6.12.35s-6.12-.16-6.12-.35c0-.19 2.74-.35 6.12-.35s6.12.16 6.12.35ZM122.23 275.34c0 .19-3.28.35-7.32.35-4.04 0-7.32-.16-7.32-.35 0-.19 3.28-.35 7.32-.35 4.04 0 7.32.16 7.32.35ZM139.55 275.34c0 .19-3.28.35-7.32.35-4.04 0-7.32-.16-7.32-.35 0-.19 3.28-.35 7.32-.35 4.05 0 7.32.16 7.32.35ZM156.87 275.34c0 .19-3.28.35-7.32.35-4.04 0-7.32-.16-7.32-.35 0-.19 3.27-.35 7.32-.35 4.05 0 7.32.16 7.32.35ZM174.2 275.34c0 .19-3.28.35-7.32.35-4.04 0-7.32-.16-7.32-.35 0-.19 3.28-.35 7.32-.35 4.04 0 7.32.16 7.32.35ZM191.52 275.34c0 .19-3.28.35-7.32.35-4.04 0-7.32-.16-7.32-.35 0-.19 3.28-.35 7.32-.35 4.04 0 7.32.16 7.32.35ZM208.84 275.34c0 .19-3.28.35-7.32.35-4.04 0-7.32-.16-7.32-.35 0-.19 3.28-.35 7.32-.35 4.04 0 7.32.16 7.32.35ZM226.16 275.34c0 .19-3.28.35-7.32.35-4.04 0-7.32-.16-7.32-.35 0-.19 3.28-.35 7.32-.35 4.04 0 7.32.16 7.32.35ZM243.48 275.34c0 .19-3.28.35-7.32.35-4.04 0-7.32-.16-7.32-.35 0-.19 3.28-.35 7.32-.35 4.05 0 7.32.16 7.32.35ZM260.8 275.34c0 .19-3.28.35-7.32.35-4.04 0-7.32-.16-7.32-.35 0-.19 3.28-.35 7.32-.35 4.05 0 7.32.16 7.32.35Z"></path><path fill="#FFF" d="M146.54 224.88c-.02-.09.71.02.99.96.12.44.12 1.06-.33 1.6-.44.55-1.32.67-1.98.35-.67-.29-1.17-1.02-1.05-1.72.1-.68.57-1.1.98-1.3.89-.42 1.46.05 1.38.1-.03.1-.54-.09-1.13.32-.28.2-.56.55-.59.95-.04.39.24.81.7 1.02.46.2.96.14 1.23-.15.28-.28.36-.73.32-1.07-.09-.71-.58-.96-.52-1.06zM226.27 206.9c0-.04.16-.1.47-.05.3.05.73.25 1.08.69.35.42.61 1.18.29 1.94-.31.73-1.09 1.3-2.02 1.3-.97 0-1.68-.78-1.88-1.49-.24-.74-.01-1.51.39-1.91.82-.82 1.59-.69 1.57-.63.04.11-.65.21-1.19.94-.26.35-.36.87-.17 1.4.19.52.68 1 1.29 1 .61.01 1.2-.4 1.43-.87.24-.48.12-1.02-.11-1.39-.47-.78-1.17-.82-1.15-.93zM227.57 172.13c-.19 0-.35-.45-.35-1s.16-1 .35-1c.19 0 .35.45.35 1-.01.55-.16 1-.35 1zM227.57 180.79c-.19 0-.35-.97-.35-2.17s.16-2.17.35-2.17c.19 0 .35.97.35 2.17-.01 1.2-.16 2.17-.35 2.17zM227.57 189.46c-.19 0-.35-.97-.35-2.17s.16-2.17.35-2.17c.19 0 .35.97.35 2.17-.01 1.2-.16 2.17-.35 2.17zM227.57 198.13c-.19 0-.35-.97-.35-2.17s.16-2.17.35-2.17c.19 0 .35.97.35 2.17-.01 1.2-.16 2.17-.35 2.17zM227.57 204.46c-.19 0-.35-.45-.35-1s.16-1 .35-1c.19 0 .35.45.35 1-.01.55-.16 1-.35 1z"></path></g><g fill-rule="nonzero"><path fill="#00759F" d="M285.17 409.05s-10.2 13.83-44.83 13c-25.24-.6-50.26-19.71-50.26-19.71s42.83-28.38 95.09 6.71Z"></path><path fill="#005CB4" d="M284.63 410.5s-20.89 2.25-48.76-29.6c-20.31-23.22-23.8-61.52-23.8-61.52s60.96 15.08 72.56 91.12Z"></path><path fill="#741AAC" d="M283.69 409.93s-19.04-8.88-26.4-50.56c-5.37-30.38 11.48-64.96 11.48-64.96s44.33 44.45 14.92 115.52Z"></path></g><g fill-rule="nonzero"><path fill="#00759F" d="M660.28 417.43s10.14 13.75 44.55 12.92c25.08-.6 49.94-19.59 49.94-19.59s-42.56-28.2-94.49 6.67Z"></path><path fill="#005CB4" d="M660.81 418.87s20.75 2.24 48.45-29.42c20.19-23.07 23.65-61.14 23.65-61.14s-60.57 15-72.1 90.56Z"></path><path fill="#741AAC" d="M661.75 418.31s18.92-8.83 26.23-50.24c5.33-30.19-11.41-64.55-11.41-64.55s-44.05 44.17-14.82 114.79Z"></path></g><path fill="#83FFFF" fill-rule="nonzero" d="m97.75 234.3 182.94-79.28 230.4 269.89L91.92 249.58" opacity=".3"></path><g fill-rule="nonzero"><g transform="translate(280 155)"><path fill="url(#o)" d="M.69.02h385.18v268.24H.69z"></path><path fill="url(#p)" d="M27.91 15.64h342.78v146.13H27.91z"></path><path fill="url(#q)" d="M27.91 169.85h177.86v85.09H27.91z"></path><path fill="#A600A9" d="M124.31 93.79h17.94v64.41h-17.94z"></path><path fill="url(#r)" d="M144.59 81.59h17.94v76.61h-17.94z"></path><path fill="#A600A9" d="M164.95 39.83h17.94v118.38h-17.94z"></path><circle cx="14.97" cy="29.48" r="4.02" fill="url(#s)"></circle><circle cx="14.97" cy="56.71" r="4.02" fill="url(#t)"></circle><circle cx="14.97" cy="86.61" r="4.02" fill="url(#u)"></circle><path fill="url(#v)" d="M339.99 200.68c-13.41 3.91-13.36-2.31-29.36-5.03-15.99-2.72-20.95 2.72-28.66 8.35-7.7 5.62-19.61-.27-26.95-2.77-7.35-2.5-18.35 1.43-26.92 8.51-2.81 2.33-6.74 3.64-10.74 4.37v31.55h152.16v-65.95c-9.84 5.24-18.84 17.85-29.53 20.97Z"></path><path fill="#00759F" d="M339.99 209.95c-13.41 3.91-13.36-2.31-29.36-5.03-15.99-2.72-20.95 2.72-28.66 8.35-7.71 5.63-19.61-.27-26.95-2.77-7.35-2.5-18.35 1.43-26.92 8.51-2.81 2.33-6.74 3.64-10.74 4.37v31.55h152.16v-65.95c-9.84 5.25-18.84 17.85-29.53 20.97Z"></path></g><path fill="#A600A9" d="M324.95 244.74h17.94v68.46h-17.94z"></path><path fill="url(#w)" d="M64.69 69.59h17.94v88.61H64.69z" transform="translate(280 155)"></path><path fill="url(#x)" d="M84.29 115.42h17.94v42.79H84.29z" transform="translate(280 155)"></path><path fill="url(#y)" d="M104.16 127.84h17.94v30.36h-17.94z" transform="translate(280 155)"></path><path fill="url(#z)" d="M27.67 27.72h5.87v44.3h-5.87z" transform="translate(412 329)"></path><path fill="#005CB4" d="M430.63 375.36h5.87v25.65h-5.87z"></path><path fill="#A600A9" d="M421.59 371.36h5.87v29.66h-5.87z"></path><path fill="#005CB4" d="M412.55 389.06h5.87v11.96h-5.87z"></path><path fill="#00759F" d="M457.76 347.04h5.87v53.97h-5.87z"></path><path fill="url(#A)" d="M36.71 22.98h5.87v49.04h-5.87z" transform="translate(412 329)"></path><path fill="#A600A9" d="M475.84 341.7h5.87v59.31h-5.87z"></path><path fill="#005CB4" d="M466.8 329.99h5.87v71.03h-5.87z"></path><path fill="#1A2E35" d="M418.26 406.58c0 .14-1.16.25-2.6.25-1.43 0-2.6-.11-2.6-.25s1.16-.26 2.6-.26c1.44 0 2.6.12 2.6.26ZM427.18 406.58c0 .14-1.16.25-2.6.25-1.43 0-2.59-.11-2.59-.25s1.16-.26 2.59-.26c1.44 0 2.6.12 2.6.26ZM436.09 406.58c0 .14-1.16.25-2.59.25s-2.59-.11-2.59-.25 1.16-.26 2.59-.26 2.59.12 2.59.26ZM445 406.58c0 .14-1.16.25-2.59.25s-2.6-.11-2.6-.25 1.16-.26 2.6-.26c1.43 0 2.59.12 2.59.26ZM453.92 406.58c0 .14-1.16.25-2.59.25s-2.6-.11-2.6-.25 1.16-.26 2.6-.26c1.43 0 2.59.12 2.59.26ZM462.83 406.58c0 .14-1.16.25-2.6.25-1.43 0-2.6-.11-2.6-.25s1.16-.26 2.6-.26c1.44 0 2.6.12 2.6.26ZM471.75 406.58c0 .14-1.16.25-2.6.25-1.43 0-2.59-.11-2.59-.25s1.16-.26 2.59-.26 2.6.12 2.6.26ZM480.66 406.58c0 .14-1.16.25-2.6.25-1.43 0-2.59-.11-2.59-.25s1.16-.26 2.59-.26c1.44 0 2.6.12 2.6.26Z"></path></g><ellipse cx="102.77" cy="439.2" fill="#000640" fill-rule="nonzero" opacity=".5" rx="54.62" ry="8.03"></ellipse><path fill="#000" fill-rule="nonzero" d="m108.75 256.43-7.28 31.98c-.2.87.39 1.73 1.28 1.85l22.66 3.25c.79.11 1.53-.4 1.71-1.17l7.28-31.97c.2-.87-.39-1.73-1.27-1.86l-22.66-3.25c-.8-.12-1.54.39-1.72 1.17Z"></path><path fill="url(#B)" fill-rule="nonzero" d="M9.17 2.46 2.2 33.07l22.5 3.23 6.97-30.61z" transform="translate(101 255)"></path><path stroke="#A1D2F0" stroke-linecap="round" stroke-linejoin="round" stroke-width="1.481" d="m130.28 262.94-19.11-2.74M129.64 265.84l-19.12-2.75M121.68 268.24l-11.95-1.72M120.83 270.72l-11.95-1.71M119.98 273.21l-11.95-1.71M124.36 286.95l-11.94-1.71"></path><path fill="url(#C)" fill-rule="nonzero" d="M36.03 68.78c1.28-.6 2.24-1.72 3.15-2.81l2.7-3.21c.36-.42.73-.89.77-1.44-1.51-.12-2.48 1.84-3.99 1.95.7-2.48 1.71-4.88 3-7.12.31-.55.65-1.18.43-1.77-1.63.62-3.01 1.78-4.19 3.06-.83.9-1.6 1.87-2.27 2.89-1.99 3.01-3.23 6.47-4.07 9.99" transform="translate(64 220)"></path><g fill-rule="nonzero"><path fill="#F2A181" d="m93.58 333.9-7.04 16.14c2.97 5.01 4.68 10.93 4.91 16.92.12 3.12-.16 6.23-.07 9.35.01.22.04.46.09.68.94-4.62 1.65-8.43 1.92-10.9.77-6.94.77-17.97.53-32.21-.1 0-.22 0-.34.02Z"></path><path fill="url(#D)" d="M22.54 14.54 6.36.89S-1.17 11.1 1.67 20.95c1.4 4.84 3.15 7.25 3.91 9.55.71 2.15 5.58 32.54 5.22 34.77-.36 2.22-2.98 8.44-3.98 14.98-1.1 7.19-1.02 29.22-1.71 38.13H5.1s-.55 6.65-1.34 8.1c-.78 1.45-1.89 3.07-2.08 5.04-.11 1.14.52 2.35 1.83 3.02 1.31.67 2.19-.03 2.66.03 2.74.33 3.23 2.41 7.93 3.19 1.45.24 3.67-.25 4.94-1.25.5-.39.48-1.02.2-1.46-.28-.43-3.75-1.62-5.31-2.63-1.49-.96-2.95-3.6-3.36-4.5-.1-.23-.08-.89.01-1.72.21-1.42.45-2.9.71-4.43.21-1.09.38-1.88.38-1.88l-.05-.01c3.43-19.36 9.81-44.94 10.79-53.76 1.08-9.85.64-27.84.13-51.58Z" transform="translate(71 300)"></path><path fill="#000" d="M90.4 436.83c.34-.59.43-1.47.11-1.69-.44-.3-2.02-1.34-2.93-1.76-.91-.42-2.36-.79-1.85-.51.51.28-.43 1.31-1.28 1.25-2.95-.18-5.12-2.14-6.8-2.56-2.42-.61-3.44-3.47-3.55-3.93-.46.29-1.52 2.6-1.74 3.32-.19.66-.55 1.85-.36 2.53.13.47.41 1.42.27 2.42 0 0 .48.37 1.74.63.8.17 1.88.03 1.88.03l.21-1.52s.66-.02 1.5.15c.84.17 2.21.97 2.29 1.07.34.4.61 1.14 1.05 1.36 1.18.59 2.37.88 3.87.97 3.16.16 5-.76 5.59-1.76Z"></path></g><g fill-rule="nonzero"><path fill="url(#E)" d="M38.63 137.53c-.35-.38-4.1-.99-5.85-1.73-1.67-.7-3.7-2.95-4.1-3.91-.4-.95-.3-5.79-.25-7.82.35-13.99 2.94-48.18 3.31-56.36.65-14.23-1.2-28.92-6.67-51.76L4.68.3S-1.03 10.91.88 21.06c1.11 5.89 5.99 6.79 6.82 9.08.83 2.29 13.16 39.18 13.16 39.18s-2.4 7.98-2.54 16.72c-.12 7.46 3.26 29.96 3.89 38.53.07 1.67.36 5.69-.13 6.96-.6 1.56-2.15 3.4-2.07 5.37.04 1.15.87 2.23 2.32 2.68 1.44.45 2.25-.39 2.75-.41 2.87-.12 3.67 1.86 8.63 1.85 1.53 0 3.75-.84 4.93-2.05.44-.43.34-1.05-.01-1.44Z" transform="translate(77 299)"></path><path fill="#000" d="M116.06 438.29c.27-.64.23-1.53-.12-1.69-.5-.22-2.27-1-3.27-1.26-1-.27-2.54-.4-1.98-.21.56.19-.26 1.36-1.15 1.45-3.07.3-5.59-1.28-7.38-1.42-2.59-.2-3.54-2.86-3.71-3.31-.43.36-1.71 2.81-1.83 3.57-.11.68-.3 1.92-.01 2.56.2.44.63 1.34.62 2.34 0 0 .55.28 1.89.34.85.03 1.94-.28 1.94-.28v-1.54s.68-.13 1.57-.1 1.99.49 2.53.89c.42.32.86.85 1.36.98 1.44.36 2.47.46 4.03.3 3.27-.33 5.04-1.54 5.51-2.62Z"></path></g><path fill="url(#F)" fill-rule="nonzero" d="M13.79 79.17c-1.38 1.52-6.31 9.74-6.37 16.42-.05 6.69 2.33 10.98 2.54 12.37 1.56 10.22 3.08 22.54 3.08 23.21 0 .67 5.8 4.54 13.6 4.05 14.41-.91 20.01-4.68 20.01-4.68s-.68-24.75-2.9-36.95c-1.11-6.11-5.96-15.96-5.96-15.96" transform="translate(64 220)"></path><path fill="#FFF" fill-rule="nonzero" d="M64.64 272.45s2.32 11.53 2.93 13.58c.61 2.05 3.62 15.08 6.47 14.85 2.85-.23 18.48-13.27 18.48-13.27l-2.21-4.43-13.76 6.56s-1.24-14.89-2.33-18.44"></path><path fill="url(#G)" fill-rule="nonzero" d="M5.96 59.55c1.46 5.15 4.44 10.57 5.33 14.57.18.8 9.71-2.66 9.73-6.24" transform="translate(64 220)"></path><path fill="#B03D44" fill-rule="nonzero" d="M68.74 265.74s-.5 9.63 1.24 14.49c1.72-.03 3.23-.43 3.23-.43l-4.47-14.06Z"></path><path fill="#FFF" fill-rule="nonzero" d="M95.76 226.24c2.75 3.56 2.21 8.58 1.53 13.03-.34 2.25-.69 4.5-1.03 6.75-.16 1.07-.38 2.24-1.21 2.93-.84.69-2.04.68-3.13.64l.03 5.59c-3.19.07-6.37.09-9.56.04 0-1.31-.29-2.61-.82-3.79-1.56-.03-2.6-1.59-3.21-3.03-.7-1.65-1.22-3.38-1.71-5.11-.66-2.29-1.29-4.62-1.35-7.01-.06-2.39.51-4.87 2.02-6.71 1.03-1.26 2.44-2.15 3.88-2.9 1.98-1.03 4.35-1.84 6.39-.94"></path><path fill="#000" fill-rule="nonzero" d="M92.99 234.41c.25.39.19.92.43 1.32.4.68.92.92 1.63 1.25 1.14.53.88 2.2.84 2.94.86-.57 1-2.14 1.21-2.93.23-.89.38-1.81.65-2.69.25-.86.69-1.67.77-2.58.28-3.13-1.68-6.81-4.06-8.56-1.73-1.28-4.36-1.23-6.31.07-.82.55-1.44 1.37-1.8 2.29-.16.39-.26.85-.07 1.23"></path><path fill="url(#H)" fill-rule="nonzero" d="M13.65 36.51c.16-1.09.46-2.36 1.47-2.79.28-.12.59-.16.9-.19 3.11-.34 6.24-.49 9.36-.44 1.29.02 2.63.09 3.79.66 1.81.91 2.81 2.86 3.69 4.69" transform="translate(64 220)"></path><path fill="#B03D44" fill-rule="nonzero" d="M102.9 277.42c0 1.02-.57 2.39-.75 2.92-.71.37-3.53.97-5.15.23-.36-3.37-2.33-9.85-2.33-9.85s8.23 5.76 8.23 6.7Z"></path><g fill-rule="nonzero"><path fill="#FFF" d="M99.28 275.07s9.34 22.56 13.39 22.56c2.95 0 10.17-20.83 10.17-20.83l-4.57-2.16-5.09 8.72-5.15-16.27"></path><path fill="#FFF" d="M117.37 276.19s1.51-2.38 1.4-4.07c-.04-.64-.43-3.71-.11-4.31.32-.6 1.09-2.58 1.53-2.96.44-.38 2.06-1 2.46-.73.4.27.89-.99 1.55-.88.66.11 1.2.66 1.2 1.26s.88.71.99 1.15c.11.44.06.82.22 1.15.16.33.65.17.82.99.16.75-.05.82 0 1.21.05.38.38.35.27 1.08-.11.73-.61 1.68-1.05 2.5-.44.82-1.34 1.85-2.55 2.58-.59.36-.92.99-1.49 2.05"></path><path fill="#000" d="M119.88 258.76c-.12-.18-.43-.48-.81-.22-.37.26-.26.71-.18.9l2.76 6.25s.22.26.65-.12c.46-.41.32-.61.32-.61s-2.63-6.02-2.74-6.2Z"></path><path fill="#000" d="M122.78 264.55c-.53.94-1.14 1.24-1.68 1.75-.43.4-.38.66-.85 1.08.83-.06.69-.55 1.76-1.33.5-.36 1.01-.75 1.11-1.36.04-.2-.21-.32-.34-.14Z"></path></g><path fill="url(#I)" fill-rule="nonzero" d="M38.91 59.18c3.01-.55 5.34-2.64 7.73-5.08-1.33-3.67-3.22-12.7-6.51-16.15-3.4-3.55-9.13-3.11-12.2-3.01-3.18-.14-5.8.24-9.6.41-2.53.11-5.05.41-7.53.95-.28.06-.56.13-.84.2v-.03s-4.56.49-6.88 2.26c-5.9 4.51-1.33 20.9-1.33 20.9s-.29.87 3.67.65c.67-.04 1.32-.1 1.94-.18 2.06 4.83 7.24 14.79 5.73 16.92-.39.55-1.38 1.61-1.5 2.3-.44 2.53 5.29 3.43 7.74 3.63 3.73.31 8.02.1 11.76-.07 2.84-.13 9.04-1.12 9.48-4.63.09-.69-.25-1.24-.59-1.74-.44-.64-1.44-1.41-1.8-2.12-.86-1.7-1.62-8.85-1.32-10.67.23-1.46 1.23-2.41 2.05-4.54Z" transform="translate(64 220)"></path><path fill="url(#J)" fill-rule="nonzero" d="M29.39 135c-.92-5.94-6.6-24.34-6.84-24.85-3.1-2.4-5.14-4.88-6.17-6.88-.7 4.03 1.14 8.02 2.86 11.74 3.01 6.49 4.8 13.54 7.39 20.21" transform="translate(64 220)"></path><path fill="#000" fill-rule="nonzero" d="M92.47 243.22c-.38-1.87-.35-2.93.26-4.18.2-.41.47-.8.84-1.06.5-.35 1.15-.42 1.7-.18.36.16.65.45.86.8.65-2.51.79-5.19.6-7.8-.3-4.14-2.79-7.34-6.44-8.84-6.75-2.77-16.44-.03-19.18 6.59-2.07 5-1.02 12.22 2.94 16.42 3.51 3.71 8.55 4.26 13.21 3.49 2.38-.39 6.06-.16 7.29-3.4.1-.25-.12-.5-.37-.48-.97.08-1.64-1.01-1.71-1.36Z"></path><path fill="#000" fill-rule="nonzero" d="M79.31 246.14c-1.94-.55-4.04.54-5.34 2.1-1.5 1.79-2.14 4.58-.75 6.44.52.7 1.27 1.19 2.03 1.62 2.32 1.29 5.06 2.05 7.64 1.42 2.57-.63 4.83-2.94 4.8-5.59-.03-2.4-1.78-4.4-3.55-6.02"></path><path fill="#000640" fill-rule="nonzero" d="M670.81 442.12c0 5.87-23.84 10.63-53.24 10.63-29.4 0-53.24-4.76-53.24-10.63 0-5.87 23.83-10.63 53.24-10.63 29.41 0 53.24 4.76 53.24 10.63Z" opacity=".5"></path><path fill="#000" fill-rule="nonzero" d="m600.05 264.45 7.06 31.01c.19.84-.38 1.67-1.24 1.8l-21.98 3.16c-.76.11-1.49-.39-1.66-1.14l-7.06-31.01c-.19-.85.38-1.68 1.24-1.8l21.98-3.15c.77-.12 1.49.38 1.66 1.13Z"></path><path fill="url(#K)" fill-rule="nonzero" d="m23.68 2.45 6.76 29.7-21.83 3.13-6.76-29.7z" transform="translate(575 263)"></path><path stroke="#A1D2F0" stroke-linecap="round" stroke-linejoin="round" stroke-width="1.436" d="m579.16 270.77 18.55-2.66M579.79 273.58l18.54-2.66M587.51 275.91l11.59-1.67M588.33 278.32l11.59-1.67M589.16 280.73l11.59-1.66M584.91 294.06l11.59-1.66"></path><path fill="#000" fill-rule="nonzero" d="M608.51 295.84c-1.24-.59-2.17-1.67-3.05-2.73-.87-1.04-1.75-2.08-2.62-3.12-.35-.41-.71-.86-.75-1.39 1.47-.12 2.41 1.78 3.87 1.89-.68-2.41-1.66-4.74-2.91-6.91-.3-.53-.63-1.15-.42-1.72 1.58.6 2.92 1.73 4.07 2.97.81.87 1.55 1.81 2.2 2.8 1.93 2.92 3.13 6.28 3.95 9.69"></path><g fill-rule="nonzero"><path fill="#F2A181" d="m614.76 339.59 6.82 15.66c-2.88 4.86-4.54 10.6-4.76 16.41-.11 3.02.15 6.05.07 9.07-.01.21-.04.44-.09.66-.91-4.48-1.6-8.17-1.86-10.58-.75-6.73-.75-17.43-.51-31.24.11.01.22.01.33.02Z"></path><path fill="#000" d="m614.81 320.82 15.69-13.24s7.3 9.9 4.55 19.46c-1.35 4.7-3.05 7.03-3.79 9.26-.69 2.08-5.41 31.57-5.06 33.72.35 2.16 2.89 8.19 3.86 14.53 1.07 6.97.99 28.34 1.66 36.99h.01s.54 6.45 1.3 7.85c.76 1.41 1.83 2.98 2.02 4.88.11 1.1-.51 2.28-1.78 2.93-1.27.65-2.12-.03-2.58.03-2.66.32-3.13 2.34-7.69 3.09-1.41.23-3.56-.24-4.8-1.22-.48-.38-.46-.99-.19-1.41.27-.42 3.63-1.58 5.15-2.55 1.45-.93 2.86-3.49 3.26-4.37.1-.23.08-.86-.01-1.67-.21-1.38-.44-2.82-.69-4.29-.2-1.06-.36-1.83-.36-1.83l.05-.01c-3.32-18.77-9.51-43.59-10.46-52.15-1.07-9.53-.64-26.97-.14-50Z"></path><path fill="#000" d="M617.85 439.43c-.33-.57-.42-1.43-.11-1.64.43-.29 1.96-1.3 2.84-1.71.88-.41 2.29-.77 1.79-.5-.49.27.42 1.27 1.24 1.21 2.86-.17 4.97-2.08 6.6-2.48 2.35-.59 3.34-3.36 3.44-3.81.45.28 1.48 2.52 1.69 3.22.19.64.53 1.8.35 2.46-.12.46-.4 1.38-.26 2.34 0 0-.46.36-1.69.61-.78.16-1.82.02-1.82.02l-.2-1.48s-.64-.02-1.45.14c-.81.17-2.14.94-2.22 1.04-.33.39-.59 1.1-1.02 1.32-1.14.58-2.3.85-3.75.94-3.07.19-4.86-.7-5.43-1.68Z"></path></g><g fill="#000" fill-rule="nonzero"><path d="M593.38 439.15c.34-.37 3.97-.96 5.68-1.68 1.62-.68 3.59-2.86 3.97-3.79.38-.93.29-5.62.25-7.59-.34-13.57-2.85-46.73-3.21-54.67-.63-13.8 1.16-28.05 6.47-50.21l19.78-15.18s5.54 10.3 3.68 20.14c-1.08 5.71-5.81 6.59-6.61 8.81-.8 2.22-12.76 38-12.76 38s2.33 7.74 2.46 16.21c.12 7.24-3.17 29.06-3.78 37.37-.07 1.63-.35 5.52.13 6.75.59 1.52 2.08 3.3 2.01 5.21-.04 1.11-.84 2.17-2.25 2.6-1.4.44-2.18-.38-2.66-.4-2.79-.12-3.56 1.8-8.37 1.8-1.48 0-3.64-.82-4.78-1.99-.45-.41-.35-1.01-.01-1.38Z"></path><path d="M592.97 440.85c-.26-.62-.23-1.48.12-1.64.48-.22 2.2-.97 3.17-1.23.97-.26 2.47-.38 1.92-.2-.55.19.25 1.32 1.11 1.4 2.98.29 5.42-1.24 7.16-1.38 2.51-.2 3.43-2.78 3.6-3.21.42.35 1.66 2.73 1.77 3.46.11.66.29 1.86.01 2.49-.19.43-.61 1.3-.6 2.27 0 0-.53.28-1.83.33-.82.03-1.88-.27-1.88-.27v-1.49s-.66-.13-1.52-.09c-.87.03-1.93.47-2.45.87-.41.31-.84.83-1.32.95-1.39.35-2.39.45-3.91.3-3.18-.34-4.9-1.51-5.35-2.56Z"></path></g><path fill="url(#L)" fill-rule="nonzero" d="M55.09 76.91c1.34 1.47 6.12 9.44 6.17 15.93.05 6.49-2.26 10.65-2.46 12-1.52 9.91 4.82 59.8 4.82 60.45 0 .65-8.07 7.18-15.6 8.04-16.54 1.89-32.14-5.2-32.14-5.2s2.84-38.28 10.15-77.23c1.11-5.92 5.78-15.48 5.78-15.48" transform="translate(575 229)"></path><path fill="#000" fill-rule="nonzero" d="M642.84 279.99s-2.25 11.18-2.84 13.17c-.59 1.99-3.51 14.63-6.28 14.41-2.77-.22-17.93-12.88-17.93-12.88l2.15-4.29 13.35 6.36s1.21-14.45 2.26-17.89"></path><path fill="#B03D44" fill-rule="nonzero" d="M638.86 273.49s.49 9.34-1.21 14.06c-1.67-.03-3.13-.41-3.13-.41l4.34-13.65Z"></path><path fill="#FFF" fill-rule="nonzero" d="M612.65 235.17c-2.67 3.46-2.14 8.32-1.48 12.64.33 2.18.66 4.37 1 6.55.16 1.04.37 2.17 1.18 2.84.81.67 1.98.66 3.03.62l-.03 5.42c3.09.07 6.18.09 9.27.04 0-1.27.28-2.53.8-3.68 1.51-.03 2.52-1.54 3.11-2.94.68-1.6 1.18-3.28 1.66-4.96.64-2.22 1.25-4.49 1.31-6.8.06-2.31-.49-4.72-1.96-6.51-1-1.22-2.37-2.08-3.77-2.81-1.92-1-4.22-1.79-6.2-.92"></path><path fill="#000" fill-rule="nonzero" d="M615.34 243.1c-.24.38-.19.89-.41 1.28-.38.66-.89.89-1.58 1.21-1.11.52-.85 2.13-.82 2.86-.84-.56-.97-2.07-1.17-2.85-.23-.86-.37-1.75-.63-2.61-.24-.84-.67-1.62-.75-2.5-.27-3.04 1.63-6.6 3.93-8.31 1.67-1.24 4.23-1.19 6.12.07.8.53 1.4 1.33 1.75 2.22.15.38.26.83.07 1.19"></path><path fill="url(#M)" fill-rule="nonzero" d="M55.22 35.53c-.16-1.06-.44-2.29-1.43-2.71-.27-.12-.57-.15-.87-.18-3.02-.33-6.05-.48-9.08-.43-1.25.02-2.55.08-3.67.64-1.76.88-2.73 2.78-3.58 4.55" transform="translate(575 229)"></path><path fill="#B03D44" fill-rule="nonzero" d="M605.73 284.81c0 .99.55 2.31.73 2.84.69.35 3.43.94 5 .23.34-3.27 2.26-9.56 2.26-9.56s-7.99 5.58-7.99 6.49Z"></path><g fill-rule="nonzero"><path fill="#000" d="M609.24 282.53s-9.06 21.88-12.98 21.88c-2.86 0-9.87-20.2-9.87-20.2l4.43-2.1 4.94 8.46 5-15.78"></path><path fill="#000" d="M591.69 283.63s-1.47-2.31-1.36-3.95c.04-.63.41-3.6.1-4.18-.31-.58-1.05-2.5-1.48-2.87-.43-.37-2-.97-2.38-.7-.38.27-.86-.96-1.5-.85-.64.11-1.17.64-1.17 1.22s-.85.69-.96 1.12c-.11.43-.06.8-.21 1.12-.16.32-.63.16-.8.96-.15.73.05.8 0 1.17-.05.37-.37.34-.27 1.05.11.71.59 1.63 1.02 2.43.43.8 1.3 1.79 2.47 2.5.58.35.89.96 1.44 1.99"></path><path fill="#FFF" d="M589.26 266.72c.11-.17.42-.46.78-.21.36.25.25.69.17.87l-2.68 6.06s-.22.25-.63-.12c-.45-.39-.31-.59-.31-.59s2.56-5.84 2.67-6.01Z"></path><path fill="#000" d="M586.44 272.33c.51.91 1.1 1.2 1.63 1.7.42.39.36.64.82 1.05-.81-.06-.67-.54-1.71-1.29-.48-.35-.98-.73-1.08-1.32-.03-.2.22-.31.34-.14Z"></path></g><path fill="#A600A9" fill-rule="nonzero" d="M605.71 286.52c-2.92-.54-5.18-2.56-7.5-4.93 1.29-3.55 3.12-12.32 6.31-15.66 3.29-3.44 8.85-3.02 11.83-2.92 3.08-.14 5.62.23 9.31.4 2.45.11 4.9.39 7.31.92.28.06.55.12.81.19l.01-.03s4.43.47 6.67 2.19c5.72 4.38 1.29 20.27 1.29 20.27s.28.85-3.56.63c-.65-.04-1.28-.1-1.88-.18-2 4.69-7.03 14.34-5.56 16.41.38.54 1.34 1.56 1.45 2.23.42 2.46-5.13 3.32-7.51 3.52-3.62.3-7.78.1-11.41-.07-2.75-.13-8.76-1.09-9.19-4.49-.08-.67.25-1.2.58-1.69.42-.62 1.39-1.37 1.74-2.05.84-1.65 1.57-8.58 1.28-10.35-.21-1.4-1.18-2.32-1.98-4.39Z"></path><path fill="#000" fill-rule="nonzero" d="M615.85 251.64c.36-1.82.34-2.84-.26-4.05-.2-.4-.46-.78-.81-1.03a1.71 1.71 0 0 0-1.65-.17c-.35.15-.63.43-.83.77-.63-2.44-.76-5.04-.58-7.57.29-4.02 2.71-7.12 6.25-8.58 6.55-2.69 15.95-.03 18.61 6.39 2.01 4.85.99 11.86-2.85 15.92-3.4 3.6-8.3 4.13-12.81 3.39-2.31-.38-5.88-.15-7.07-3.29-.09-.24.12-.49.36-.47.92.09 1.57-.97 1.64-1.31Z"></path><path fill="#000" fill-rule="nonzero" d="M628.61 254.48c1.89-.53 3.92.53 5.18 2.03 1.45 1.74 2.08 4.44.72 6.25-.51.68-1.23 1.16-1.97 1.57-2.25 1.25-4.91 1.99-7.41 1.37-2.5-.61-4.69-2.85-4.66-5.42.03-2.33 1.73-4.27 3.44-5.84"></path><path fill="#000" fill-rule="nonzero" d="M614.78 246.56s1.92.02-.59 6.4c-2.51 6.38-2.75 18.43-2.75 18.43s6.85 2.84 16.07 2.6c9.22-.24 10.16-.24 10.4-.95.24-.71 5.91-35.21-6.62-41.12"></path><ellipse cx="556.91" cy="491.69" fill="#000640" fill-rule="nonzero" opacity=".5" rx="54.62" ry="8.03"></ellipse><g fill="#000" fill-rule="nonzero"><path d="M494.25 381.2h51.84l-2.24-4.97H492.2z"></path><path d="M592.58 491.91h-6.14l-76.6-194.13h6.72z"></path><path d="M483.24 353.33h51.84l-2.24-4.97h-51.65zM472.13 325.07h51.84l-2.24-4.98h-51.65zM537.32 491.91h-6.14l-76.6-194.13h6.73z"></path><path d="M526.99 465.6h51.85l-2.24-4.97h-51.65zM516.08 437.33h51.84l-2.24-4.97h-51.65zM505.06 409.66h51.85l-2.24-4.97h-51.65z"></path></g><g fill-rule="nonzero"><path fill="url(#N)" d="m66.36 31.37-1.9-3.95s-3.66 1.17-6.58 1.32c-2.92.15-4.09.73-4.09.73l-2.34 3.8s9.06 1.75 14.91-1.9Z" transform="translate(457 162)"></path><path fill="url(#O)" d="M66.36 31.37s4.82-.44 7.31 1.02c2.49 1.46 5.12 10.67 5.99 16.96.88 6.29 2.34 30.7 2.49 35.67.15 4.97 0 16.23 0 16.23s-13.16 2.78-22.22 2.49c-9.06-.29-16.23-7.46-16.23-7.46s.73-10.38 1.9-13.74c1.17-3.36 3.07-9.5 1.9-14.62-1.17-5.12-4.68-19.88-3.8-25.44.88-5.56 0-6.58 3.07-7.6 3.07-1.02 4.68-1.61 4.68-1.61s7.75 1.75 14.91-1.9Z" transform="translate(457 162)"></path><path fill="url(#P)" d="M54.08 43.6s-.78 6.14-5.46 13.16C43.94 63.78 38.1 70.7 36.15 71.77c-1.95 1.07-6.04.88-8.28-.88-2.24-1.75-17.74-19.69-17.74-19.69s-.1-2.14 1.66-4c1.75-1.85 3.51-1.85 3.51-1.85l14.91 12.57S39.66 41.94 42 39.11c2.34-2.83 4.68-3.51 6.53-3.22 1.85.3 5.75 3.61 5.55 7.71Z" transform="translate(457 162)"></path><path fill="#FFF" d="M471.22 207.45s-3.22-3.41-4.97-4.39c-1.75-.97-7.41-2.14-8.19-2.05-.78.1-.8.63.17 1.12.97.49 3.14 1.12 3.14 1.12s-2.73 1.66-2.73 2.83c0 1.17 1.75 3.41 2.83 3.41 1.07 0 2.63-.29 2.63-.29l3.22 2.44s.68-3.02 3.9-4.19Z"></path><path fill="url(#Q)" d="M74.25 32.83c-.15-.16 13.96 12.06 17.83 17.62 3.87 5.56 7.16 13.67 6.65 15.86-.51 2.19-4.46 6.29-7.09 8.48-2.63 2.19-9.58 6.87-9.58 6.87l-.58-13.89s4.75-4.39 4.31-4.97c-.44-.58-5.26-5.41-5.26-5.41s-.66-9.5-2.19-14.76c-1.53-5.27-2.7-8.34-4.09-9.8Z" transform="translate(457 162)"></path><path fill="url(#R)" d="M44.41 96.93c2.03 1.78 8.14 6.56 15.51 6.8 9.06.29 22.22-2.49 22.22-2.49s-1.61 10.67-2.92 14.91c-1.32 4.24-2.19 9.65-2.34 11.4-.15 1.75 2.48 31.14 2.92 39.47.44 8.33-.68 35.33-.68 35.33h-8.19s-2.97-32.55-5.6-50.53c-2.63-17.98-3.95-27.63-3.95-27.63l-1.9 3.22s-.88 31.58-1.61 45.61c-.73 14.03-2.29 29.48-2.29 29.48l-8.63.44s-3.41-53.45-3.85-68.8c-.4-14.48 1.14-34.93 1.31-37.21Z" transform="translate(457 162)"></path><path fill="url(#S)" d="M78.64 202.45s1.27 7.11 1.27 8.09c0 .97-.39 4.29-.39 4.29s-5.95.2-10.04.1c-4.09-.1-8.87-1.07-8.87-1.07s-.78-2.63.29-4.09 5.26-1.75 6.53-3.21c1.27-1.46 3.51-4.19 3.51-4.19s6.53.47 7.7.08Z" transform="translate(457 162)"></path><path fill="url(#T)" d="M54.96 202.45s1.27 7.11 1.27 8.09c0 .97-.39 4.29-.39 4.29s-5.94.2-10.04.1c-4.09-.1-8.87-1.07-8.87-1.07s-.78-2.63.29-4.09 5.26-1.75 6.53-3.21c1.27-1.46 3.51-4.19 3.51-4.19s6.53.47 7.7.08Z" transform="translate(457 162)"></path><path fill="#000" d="M521.41 188.93s1.13-14.67-.1-18.52c-1.46-4.58-4.39-7.8-8.97-7.99-4.58-.2-12.18.19-14.23 2.73-2.05 2.53-.98 6.24-.78 7.41.2 1.17 2.14 2.44 2.14 2.44s2.92-.78 3.8-.1c.88.68 2.24 3.7 2.24 3.7s.99-2.89 2.24-2.34c3.12 1.36 2.14 5.46 1.66 6.33-.62 1.12 0 .29 0 .29l6.92 7.5c.01.01 2.84.31 5.08-1.45Z"></path><path fill="#FFF" d="M503.28 174.9c.88.68 2.24 3.7 2.24 3.7s.99-2.89 2.24-2.34c3.12 1.36 2.14 5.46 1.66 6.33-.62 1.12 0 .29 0 .29l6.92 7.5-5.55 1.07-.2-1.36s-2.14.78-3.41.78-2.73-2.63-4.39-5.46c-1.66-2.83-3.31-10.43-3.31-10.43s2.93-.76 3.8-.08Z"></path></g><g fill-rule="nonzero"><path fill="url(#U)" d="M76.39 25.04s15.32 0 20.63-.88l5.31-.88 19.63-2.47-1.75 6.26s-6.98 2.48-13.08 4.11c-6.11 1.63-17.96 4.83-19.8 5.29-1.84.45-11.77 2.56-11.77 2.56" transform="translate(99 330)"></path><path fill="#000" d="M138.16 381.95s-5.11 4.17-6.73 7.94c-1.61 3.77-1.88 9.15-1.61 11.03.27 1.88.94 3.77.94 3.36 0-.4-2.15 28.92-2.15 28.92s-9.15 7.8-12.65 14.26-11.3 23.94-11.3 23.94 6.32 3.09 8.61 3.5l2.29.4s9.82-20.31 12.78-23.95c1.87-2.3 9.28-8.48 12.11-13.32 2.82-4.84 7.94-25.02 7.94-25.02s6.59 7.13 9.55 10.36c2.96 3.23 6.59 7.8 6.59 9.01s-2.56 10.22-3.23 13.45c-.67 3.23-3.36 25.42-3.36 25.42s3.77.81 7 .4c3.23-.4 3.77-1.08 3.77-1.08s1.88-15.34 3.63-22.87c1.75-7.53 3.77-13.86 4.31-15.07.54-1.21.67-3.77-1.08-9.01-1.75-5.25-7.13-16.14-11.43-22.6l-4.3-6.46s-14.28-7.36-21.68-12.61Z"></path><path fill="url(#V)" d="M49.07 84.28c1.32-7.31 2.14-13.36 2.14-13.36l-5.26 21.54c-1.38 7.89-7.51 19.54-7.51 19.54s0 .03.01.08c1.2-1.37 2.26-2.74 3.01-4.02 2.39-4.13 6.44-19.32 7.61-23.78Z" transform="translate(99 330)"></path><path fill="url(#W)" d="M58.94 141.28s-2.2 3.41-2.29 3.86c-.09.45-.54 5.16-.54 5.16l7.53 1.68.54-1.46s7.71 3.86 9.15 3.95c1.44.09 8.52 0 9.51-.27.99-.27 2.33-2.06.99-2.6-1.35-.54-5.92-.72-7-1.34-1.08-.63-6.55-5.65-7.09-7.08-.54-1.44-.72-2.24-.72-2.24s-2.86 1.59-10.08.34Z" transform="translate(99 330)"></path><path fill="url(#X)" d="M5.87 141.68s-2.42 3.36-2.89 4.84c-.47 1.48-2.02 6.19-2.02 6.19s2.22 1.75 3.77 2.35c1.55.6 1.88.74 1.88.74l1.08-1.08s3.63 3.5 6.73 4.3c3.09.81 9.35 1.08 11.5.54 2.15-.54 3.16-2.62 2.29-3.36-.87-.74-3.83-1.01-5.65-2.56-1.82-1.55-5.18-4.31-5.65-5.72-.47-1.41-.34-2.62-.34-2.62s-.88.62-10.7-3.62Z" transform="translate(99 330)"></path><path fill="url(#Y)" d="M83.96 153.36c-1.09.18-2.74.24-5.16.38-4.75.27-6.19-1.17-11.57-3.05-4.27-1.5-9-3.33-10.76-4.02-.16 1.53-.36 3.62-.36 3.62l7.53 1.68.54-1.46s7.71 3.86 9.15 3.95c1.44.09 8.52 0 9.51-.27.38-.1.81-.43 1.12-.83Z" transform="translate(99 330)"></path><path fill="#000" d="M125.16 488.76c-1.7.54-9.69.63-13.27-1.08-2.92-1.39-8.74-6.51-10.82-8.37-.55 1.68-1.11 3.4-1.11 3.4s2.22 1.75 3.77 2.35c1.55.6 1.88.74 1.88.74l1.08-1.08s3.63 3.5 6.73 4.3c3.09.81 9.35 1.08 11.5.54 1.41-.35 2.33-1.37 2.55-2.24-.7.69-1.53 1.2-2.31 1.44ZM138.16 381.95l1.35-2.42 21.43 13.18-1.12 1.88c0 .01-16.99-8.78-21.66-12.64Z"></path><path fill="url(#Z)" d="M40.51 49.53c-.34-.21 14.98-19.73 20.9-26.01 5.92-6.28 11.21-9.78 15.43-9.51 4.22.27 10.76 6.37 12.11 11.93 1.35 5.56-4.04 17.04-5.29 19.1-1.26 2.06-7.44 5.65-12.2 9.33-4.75 3.68-6.01 5.38-7.35 6.37-1.35.99-2.15 1.97-2.15 1.97s-18.4-11.29-21.45-13.18Z" transform="translate(99 330)"></path><path fill="#FFF" d="M140.56 379.87c.38-.25 8.14-13.03 20.41-25.8 7.86-8.18 14.15-9.77 14.15-9.77s-3.56-.5-10.9 5.51c-6.26 5.14-24.73 29.72-24.73 29.72l1.07.34Z"></path><path fill="#000" d="M186.14 351.73s8.16-5.92 9.42-7.08c1.26-1.17 7-1.7 9.95-.27 2.96 1.44 6.46 9.51 6.37 12.02-.09 2.51-1.97 4.48-1.97 4.48l-2.87-.72s-2.24 2.51-3.05 2.96c-.81.45-1.97.45-1.97.45s-1.88 3.86-2.51 3.86c-.63 0-2.6-1.34-2.6-1.34s-6.01 2.06-6.28 1.52c-.27-.54-3.32-4.84-3.32-4.84s2.51-5.57-1.17-11.04Z"></path><path fill="url(#aa)" d="M78.08 14.38s15.16 2.24 20.54 2.15l5.38-.09 25.11-2.78.63 5.92s-15.87 4.66-22.15 5.38c-6.28.72-18.47 2.15-20.36 2.33-1.88.18-12.02.81-12.02.81" transform="translate(99 330)"></path><path fill="#FFF" d="M228.2 344.83s4.21-1.88 4.75-2.96.36-4.57.99-6.01c.63-1.44 3.41-5.29 3.95-5.29s.9.09.63 2.51-.9 5.38-.9 6.55.27 4.57-.54 5.56c-.81.99-2.33 1.34-3.41 1.88-1.08.54-5.11 1.35-5.11 1.35l-.36-3.59Z"></path></g><g fill-rule="nonzero"><path fill="#005CB4" d="M112.94 108.84h83.53v6.43h-83.53z"></path><path fill="#00759F" d="M153.1 122.5h83.53v6.43H153.1z"></path><path fill="#4529AC" d="M55.92 134.54h148.91v6.43H55.92z"></path><path fill="#3129AC" d="M280 140.97h148.91v6.43H280z"></path><path fill="#4529AC" d="M302.01 127.31h53.01v6.43h-53.01z"></path><path fill="#0075B4" d="M402.88 128.12h57.35v6.43h-57.35z"></path><path fill="#FFF" d="M570.91 130.53h57.35v6.43h-57.35z" opacity=".3"></path><path fill="#FFF" d="M513 108.84h57.35v6.43H513z" opacity=".1"></path><path fill="#00759F" d="M283.54 65.47h55.42v6.43h-55.42z"></path><path fill="#313BAC" d="M310.85 83.14h65.05v6.43h-65.05z"></path></g><g fill-rule="nonzero" transform="translate(228 288)"><circle cx="96.28" cy="95.79" r="95.34" fill="url(#ab)"></circle><path fill="url(#ac)" d="M96.28.46V95.8l82.31-48.13C162.04 19.42 131.38.46 96.28.46Z"></path></g><path fill="url(#ad)" fill-rule="nonzero" d="M297.45 62.01c-2.92 0-5.65.8-7.99 2.19-.56-8.14-7.33-14.57-15.61-14.57-1.79 0-3.5.32-5.1.87-2.31-7.46-9.26-12.88-17.48-12.88-.62 0-1.23.04-1.83.1-7.68.48-14.07 5.68-16.29 12.75-1.61-.56-3.33-.88-5.13-.88-8.28 0-15.05 6.43-15.61 14.57a15.59 15.59 0 0 0-7.99-2.19c-8.65 0-15.66 7.01-15.66 15.65s7.01 15.65 15.66 15.65c.58 0 1.14-.03 1.71-.1h24.04c.7.08 1.41.14 2.14.14.63 0 1.25-.03 1.87-.09h34.33c.35.02.7.05 1.05.05.36 0 .7-.03 1.05-.05h25.13c.56.06 1.13.09 1.71.09 8.65 0 15.65-7.01 15.65-15.65.01-8.64-7-15.65-15.65-15.65Z" opacity=".3"></path></g></svg>